<?xml version="1.0" encoding="iso-8859-1"?>
<!-- Generator: Adobe Illustrator 16.0.0, SVG Export Plug-In . SVG Version: 6.00 Build 0)  -->
<!DOCTYPE svg PUBLIC "-//W3C//DTD SVG 1.1//EN" "http://www.w3.org/Graphics/SVG/1.1/DTD/svg11.dtd">
<svg version="1.1" id="Capa_1" xmlns="http://www.w3.org/2000/svg" xmlns:xlink="http://www.w3.org/1999/xlink" x="0px" y="0px"
	 width="56.333px" height="56.333px" viewBox="0 0 56.333 56.333" style="enable-background:new 0 0 56.333 56.333;"
	 xml:space="preserve">
<g>
	<g>
		<path d="M6.299,0c-0.553,0-1,0.448-1,1v54.333c0,0.552,0.447,1,1,1h43.734c0.553,0,1-0.448,1-1V1c0-0.552-0.447-1-1-1H6.299z
			 M49.034,54.333H7.299V2h41.734V54.333z"/>
		<path d="M10.533,51.749H45.8c0.553,0,1-0.448,1-1v-17.5c0-0.552-0.447-1-1-1H10.533c-0.553,0-1,0.448-1,1v17.5
			C9.533,51.303,9.98,51.749,10.533,51.749z M11.533,34.249H44.8v15.5H11.533V34.249z"/>
		<path d="M10.533,31.421H45.8c0.553,0,1-0.448,1-1v-6.922c0-0.552-0.447-1-1-1H10.533c-0.553,0-1,0.448-1,1v6.922
			C9.533,30.975,9.98,31.421,10.533,31.421z M11.533,24.499H44.8v4.922H11.533V24.499z"/>
		<path d="M23.871,13.999H27l-0.787,5.098c-0.073,0.475,0.201,0.934,0.653,1.095c0.11,0.039,0.224,0.058,0.335,0.058
			c0.347,0,0.68-0.182,0.863-0.495l5.262-9c0.181-0.31,0.183-0.692,0.004-1.002c-0.178-0.311-0.51-0.502-0.867-0.502H29.51
			l0.777-4.841c0.076-0.47-0.19-0.929-0.637-1.096c-0.445-0.165-0.949,0.004-1.2,0.41l-5.43,8.75
			c-0.191,0.309-0.201,0.696-0.024,1.014C23.174,13.803,23.508,13.999,23.871,13.999z M27.522,9.013l-0.174,1.078
			c-0.047,0.289,0.036,0.584,0.227,0.807c0.189,0.223,0.468,0.352,0.761,0.352h2.384l-1.729,2.956l0.163-1.054
			c0.045-0.288-0.039-0.582-0.229-0.803C28.736,12.127,28.458,12,28.166,12h-2.497L27.522,9.013z"/>
		<path d="M28.166,34.581c-2.363,0-4.285,1.922-4.285,4.285c0,2.362,1.922,4.285,4.285,4.285c2.364,0,4.286-1.923,4.286-4.285
			C32.452,36.503,30.53,34.581,28.166,34.581z M28.166,41.152c-1.26,0-2.285-1.025-2.285-2.285s1.025-2.285,2.285-2.285
			c1.26,0,2.286,1.025,2.286,2.285S29.426,41.152,28.166,41.152z"/>
	</g>
</g>
<g>
</g>
<g>
</g>
<g>
</g>
<g>
</g>
<g>
</g>
<g>
</g>
<g>
</g>
<g>
</g>
<g>
</g>
<g>
</g>
<g>
</g>
<g>
</g>
<g>
</g>
<g>
</g>
<g>
</g>
</svg>
