<?xml version="1.0" encoding="iso-8859-1"?>
<!-- Generator: Adobe Illustrator 17.1.0, SVG Export Plug-In . SVG Version: 6.00 Build 0)  -->
<!DOCTYPE svg PUBLIC "-//W3C//DTD SVG 1.1//EN" "http://www.w3.org/Graphics/SVG/1.1/DTD/svg11.dtd">
<svg version="1.1" id="Capa_1" xmlns="http://www.w3.org/2000/svg" xmlns:xlink="http://www.w3.org/1999/xlink" x="0px" y="0px"
	 viewBox="0 0 442.534 442.534" style="enable-background:new 0 0 442.534 442.534;" xml:space="preserve">
<path d="M135.425,158.599c10.718,6.368,22.734,9.551,34.751,9.551c12.018,0,24.036-3.064,34.754-9.431
	C228.003,145.009,241.52,119,242.85,87h19.17c5.522,0,10-4.478,10-10s-4.478-10-10-10h-29.092c-0.035,0-0.068,0-0.105,0H118.215
	c3.941-27,23.224-47,46.347-47h13.71c15.448,0,29.967,9.355,38.836,24.849c2.743,4.792,8.853,6.508,13.646,3.763
	c4.793-2.743,6.455-8.932,3.711-13.724C221.989,13.091,200.983,0,178.273,0h-13.71c-36.937,0-66.996,34.341-67.084,76.466
	C96.143,113.482,109.967,143.476,135.425,158.599z M222.827,87c-1.235,25-11.222,44.488-28.113,54.524
	c-15.134,8.991-33.939,9.052-49.075,0.061C128.746,131.549,118.757,112,117.52,87H222.827z M209.887,218.254l-10.198,32.409
	c-1.658,5.269-7.271,8.196-12.541,6.538c-5.268-1.658-8.195-7.272-6.538-12.54l10.506-33.39c-9.088-2.139-18.547-2.805-27.539-2.16
	c-4.705,0.337-9.537,1.057-14.334,2.196l27.339,86.894c1.658,5.268-1.27,10.895-6.538,12.553s-10.883-1.242-12.541-6.512
	l-27.029-85.852c-14.166,7.552-25.701,20.152-29.189,38.987L79.907,373h96.526c5.523,0,10,4.478,10,10s-4.477,10-10,10H67.885
	c-2.971,0-5.788-1.532-7.688-3.816s-2.686-5.505-2.145-8.426l23.57-127.232c6.68-36.074,38.29-61.34,80.528-64.366
	c19.792-1.414,39.693,2.48,56.04,10.978c18.507,9.62,31.582,24.438,37.81,42.853c1.77,5.231-1.037,10.907-6.269,12.677
	c-5.228,1.77-10.907-1.036-12.677-6.269C232.193,235.023,222.162,224.824,209.887,218.254z M294.022,323.229
	c-15.812,0-28.676,12.864-28.676,28.677s12.864,28.677,28.676,28.677c15.813,0,28.677-12.864,28.677-28.677
	S309.834,323.229,294.022,323.229z M294.022,360.582c-4.784,0-8.676-3.893-8.676-8.677s3.892-8.677,8.676-8.677
	s8.677,3.893,8.677,8.677S298.806,360.582,294.022,360.582z M374.648,342h-16.892c-1.615-10-5.693-19.916-11.617-28.022
	l11.964-11.993c3.904-3.905,3.903-10.249-0.003-14.154c-3.905-3.905-10.238-3.91-14.142-0.003l-11.961,11.962
	c-8.104-5.922-17.639-10.002-27.976-11.619l-0.002-16.894c-0.001-5.522-4.479-10-10.001-9.999c-5.523,0.001-10,4.478-9.999,10.001
	l0.002,16.891c-10.339,1.616-19.871,5.695-27.977,11.618l-11.969-11.966c-3.904-3.906-10.237-3.905-14.142,0.001
	c-3.905,3.905-3.904,10.237,0.001,14.142l11.968,12.015c-5.921,8.104-10,18.021-11.615,28.021h-16.896
	c-5.522,0-10,4.478-9.999,10.001c0,5.522,4.478,9.999,10.001,9.999h16.893c1.615,10,5.695,19.822,11.616,27.928l-11.969,11.943
	c-3.905,3.905-3.905,10.225,0,14.131c3.906,3.903,10.236,3.899,14.143-0.006l11.967-11.97c8.105,5.923,17.638,10.001,27.977,11.618
	l0.002,16.892c0.001,5.523,4.479,10,10.001,9.999s10-4.479,9.999-10.001l-0.002-16.892c10.34-1.615,19.872-5.695,27.978-11.618
	l11.966,11.966c3.903,3.905,10.236,3.906,14.142,0.001c3.906-3.905,3.906-10.236,0.001-14.142l-11.967-11.92
	c5.922-8.105,10.002-17.928,11.617-27.928h16.893c5.522,0,9.999-4.478,9.999-10.001C384.649,346.477,380.171,342,374.648,342z
	 M338.522,352.796c-0.23,11.681-4.984,22.275-12.577,30.096c-0.164,0.144-0.325,0.295-0.481,0.451
	c-0.157,0.157-0.309,0.318-0.453,0.482c-7.821,7.595-18.417,12.351-30.1,12.581c-0.294-0.025-0.592-0.039-0.892-0.039
	s-0.597,0.014-0.89,0.039c-11.671-0.23-22.257-4.977-30.074-12.56c-0.15-0.172-0.308-0.341-0.472-0.505
	c-0.164-0.163-0.332-0.32-0.504-0.471c-7.587-7.825-12.334-18.422-12.558-30.105c0.024-0.284,0.037-0.572,0.037-0.863
	c0-0.29-0.013-0.577-0.037-0.861c0.225-11.688,4.977-22.289,12.57-30.115c0.168-0.146,0.332-0.3,0.491-0.46
	c0.16-0.159,0.313-0.323,0.46-0.491c7.816-7.586,18.399-12.336,30.071-12.57c0.597,0.055,1.217,0.055,1.815,0
	c11.68,0.236,22.27,4.991,30.087,12.587c0.143,0.163,0.292,0.321,0.447,0.477c0.153,0.154,0.312,0.302,0.473,0.444
	c7.599,7.821,12.354,18.417,12.585,30.103c-0.026,0.294-0.039,0.591-0.039,0.892C338.483,352.206,338.496,352.503,338.522,352.796z"
	/>
<g>
</g>
<g>
</g>
<g>
</g>
<g>
</g>
<g>
</g>
<g>
</g>
<g>
</g>
<g>
</g>
<g>
</g>
<g>
</g>
<g>
</g>
<g>
</g>
<g>
</g>
<g>
</g>
<g>
</g>
</svg>
