<?xml version="1.0" encoding="iso-8859-1"?>
<!-- Generator: Adobe Illustrator 16.0.0, SVG Export Plug-In . SVG Version: 6.00 Build 0)  -->
<!DOCTYPE svg PUBLIC "-//W3C//DTD SVG 1.1//EN" "http://www.w3.org/Graphics/SVG/1.1/DTD/svg11.dtd">
<svg fill="#FBF2EF" version="1.1" id="Capa_1" xmlns="http://www.w3.org/2000/svg" xmlns:xlink="http://www.w3.org/1999/xlink" x="0px" y="0px"
	 width="80px" height="80px" viewBox="0 0 80 80" style="enable-background:new 0 0 80 80;" xml:space="preserve">
<g>
	<g>
		<circle cx="39.343" cy="51.466" r="2.285"/>
		<path d="M55.977,46.848H22.71v15.5h33.267V46.848z M39.343,55.751c-2.363,0-4.285-1.923-4.285-4.285
			c0-2.363,1.922-4.285,4.285-4.285c2.363,0,4.285,1.922,4.285,4.285C43.628,53.828,41.706,55.751,39.343,55.751z"/>
		<path d="M40,0C17.908,0,0,17.909,0,40c0,22.091,17.908,40,40,40s40-17.909,40-40C80,17.909,62.092,0,40,0z M62.21,67.932
			c0,0.553-0.446,1-1,1H17.476c-0.553,0-1-0.447-1-1V13.599c0-0.552,0.447-1,1-1H61.21c0.554,0,1,0.448,1,1V67.932z"/>
		<path d="M18.476,66.932H60.21V14.599H18.476V66.932z M34.198,25.071l5.43-8.75c0.251-0.405,0.755-0.574,1.199-0.41
			c0.446,0.167,0.713,0.625,0.638,1.096l-0.777,4.841h2.953c0.357,0,0.688,0.191,0.866,0.502c0.179,0.311,0.177,0.693-0.004,1.002
			l-5.262,9c-0.184,0.313-0.517,0.495-0.863,0.495c-0.111,0-0.225-0.019-0.335-0.058c-0.452-0.161-0.727-0.62-0.653-1.095
			l0.787-5.098h-3.129c-0.363,0-0.697-0.197-0.874-0.514C33.997,25.767,34.007,25.38,34.198,25.071z M20.71,36.098
			c0-0.552,0.447-1,1-1h35.267c0.553,0,1,0.448,1,1v6.922c0,0.553-0.447,1-1,1H21.71c-0.553,0-1-0.447-1-1V36.098z M20.71,45.848
			c0-0.552,0.447-1,1-1h35.267c0.553,0,1,0.448,1,1v17.5c0,0.553-0.447,1-1,1H21.71c-0.553,0-1-0.447-1-1V45.848z"/>
		<rect x="22.71" y="37.098" width="33.267" height="4.922"/>
		<path d="M40.102,24.948c0.19,0.222,0.274,0.515,0.229,0.803l-0.163,1.054l1.729-2.956h-2.383c-0.293,0-0.571-0.128-0.761-0.352
			c-0.19-0.223-0.273-0.518-0.227-0.807l0.174-1.078l-1.854,2.987h2.497C39.635,24.598,39.912,24.726,40.102,24.948z"/>
	</g>
</g>
<g>
</g>
<g>
</g>
<g>
</g>
<g>
</g>
<g>
</g>
<g>
</g>
<g>
</g>
<g>
</g>
<g>
</g>
<g>
</g>
<g>
</g>
<g>
</g>
<g>
</g>
<g>
</g>
<g>
</g>
</svg>
