<svg xmlns="http://www.w3.org/2000/svg" viewBox="0 0 674.78 188.53"><defs><style>.cls-1{fill:#e94e1b;}.cls-2{fill:#f29276;}</style></defs><title>opaloSVG200</title><g id="Layer_2" data-name="Layer 2"><g id="Layer_1-2" data-name="Layer 1"><path class="cls-1" d="M186.58,40.63c.2-18.94,11.89-34.46,28.41-34.46h44.13c16.32,0,28.21,16.52,28.21,34.46v72.14c0,18.54-11.89,34.45-28.21,34.45H214.79c-16.32,0-28.21-16.12-28.21-34.45Zm12.09,0v72.14c0,14.3,5.84,22.37,16.12,22.37h44.33c10.28,0,16.12-7.86,16.12-22.37V40.63c0-13.9-5.84-22.37-16.12-22.37H215C204.52,18.26,198.87,25.71,198.67,40.63Z"/><path class="cls-1" d="M305.49,147.22V44.46h50.38c12.49,0,22.16,13.3,22.16,26.4v50c0,12.69-8.26,26.4-22.16,26.4H317.58v41.31H305.49V147.22Zm12.09-12.09h38.28c7.05,0,10.07-4.84,10.07-14.31v-50c0-9.07-3.63-14.31-10.07-14.31H317.58Z"/><path class="cls-1" d="M408.28,70.85v6H396.19v-6c0-13.1,9.67-26.4,22.16-26.4h28.21c12.49,0,22.16,13.3,22.16,26.4v76.37H456.63v-3.07a17.78,17.78,0,0,1-10.07,3.07h-28c-16.52,1.21-27.2-14.31-28.41-29.82v-.2c0-15.51,13.3-28.41,28.21-28.41h38.28V70.85c0-9.07-3.63-14.31-10.07-14.31H418.35C411.9,56.54,408.28,61.78,408.28,70.85Zm48.36,30H418.35c-10.07,0-16.12,6-16.12,16.12.81,11.89,5.84,18.94,15.72,18.14h28.62c6.85,0,10.07-6.25,10.07-17.94V100.88Z"/><path class="cls-1" d="M486.88,6.17v-6H499V121c0,9.47,3.63,14.11,10.28,14.11h6v12.09h-6c-12.29,0-22.37-12.29-22.37-26.2Z"/><path class="cls-1" d="M533.43,70.85c0-13.1,9.67-26.4,22.16-26.4h28.21c12.49,0,22.16,13.3,22.16,26.4v50c0,12.69-8.26,26.4-22.16,26.4H555.6c-13.9,0-22.16-13.7-22.16-26.4Zm12.09,0v50c0,9.47,3,14.31,10.07,14.31h28.21c7.05,0,10.07-4.84,10.07-14.31v-50c0-9.07-3.63-14.31-10.07-14.31H555.6C549.15,56.54,545.52,61.78,545.52,70.85Z"/><path class="cls-2" d="M674.78,23.63a20.9,20.9,0,0,1-41.8,0c0-11.29,9.31-20.35,21-20.35S674.78,12.34,674.78,23.63Zm-36.59,0c0,9.05,6.7,16.25,15.88,16.25,8.93,0,15.51-7.19,15.51-16.13S663,7.38,653.95,7.38,638.19,14.7,638.19,23.63ZM650.72,34.3H646V14a41.37,41.37,0,0,1,7.81-.62c3.84,0,5.58.62,7.07,1.49a5.65,5.65,0,0,1,2,4.47c0,2.23-1.74,4-4.22,4.71v.25c2,.74,3.1,2.23,3.72,5,.62,3.1,1,4.34,1.49,5.09h-5.09c-.62-.75-1-2.61-1.61-5-.37-2.23-1.61-3.22-4.22-3.22h-2.23Zm.13-11.54h2.23c2.6,0,4.71-.87,4.71-3,0-1.86-1.36-3.1-4.34-3.1a11.17,11.17,0,0,0-2.6.25Z"/><path class="cls-1" d="M122.29,50.37,97,25a7.53,7.53,0,0,0-5.32-2.2H55.82A7.53,7.53,0,0,0,50.5,25L25.17,50.37A7.53,7.53,0,0,0,23,55.69V91.51a7.53,7.53,0,0,0,2.2,5.32L50.5,122.16a7.53,7.53,0,0,0,5.32,2.2H91.64a7.53,7.53,0,0,0,5.32-2.2l25.33-25.33a7.53,7.53,0,0,0,2.2-5.32V55.69A7.53,7.53,0,0,0,122.29,50.37ZM105.1,83.48a7.53,7.53,0,0,1-2.2,5.32l-14,14a7.53,7.53,0,0,1-5.32,2.2H63.85a7.53,7.53,0,0,1-5.32-2.2l-14-14a7.53,7.53,0,0,1-2.2-5.32V63.72a7.53,7.53,0,0,1,2.2-5.32l14-14a7.53,7.53,0,0,1,5.32-2.2H83.61a7.53,7.53,0,0,1,5.32,2.2l14,14a7.53,7.53,0,0,1,2.2,5.32Z"/><path class="cls-2" d="M144.14,46.37a3.28,3.28,0,0,1-3.28-3.28l-4.68-31.86L104.32,6.55a3.28,3.28,0,1,1,0-6.55h39.82a3.28,3.28,0,0,1,3.28,3.28V43.09A3.28,3.28,0,0,1,144.14,46.37Z"/><path class="cls-2" d="M3.41,100.91a3.28,3.28,0,0,1,3.28,3.28l4.68,31.86,31.86,4.68a3.28,3.28,0,0,1,0,6.55H3.41A3.28,3.28,0,0,1,.13,144V104.19A3.28,3.28,0,0,1,3.41,100.91Z"/><path class="cls-1" d="M20.91,5.07,39.21,10a2.07,2.07,0,0,1,.93,3.46l-13.4,13.4-13.4,13.4a2.07,2.07,0,0,1-3.46-.93L5,21,.07,2.71A2.07,2.07,0,0,1,2.61.17Z"/><path class="cls-1" d="M126.63,142.21l-18.3-4.9a2.07,2.07,0,0,1-.93-3.46l13.4-13.4L134.2,107a2.07,2.07,0,0,1,3.46.93l4.9,18.3,4.9,18.3a2.07,2.07,0,0,1-2.54,2.54Z"/></g></g></svg>